# xmcd
#
# Track frame offsets:
#	150
#	11974
#	21854
#	33787
#	47354
#	59213
#	70768
#	82720
#	98887
#	111498
#
# Disc length: 1702 seconds
#
# Revision: 1
# Processed by: cddbd v1.5.1PL0 Copyright (c) Steve Scherf et al.
# Submitted via: audiograbber 1.80.04
#
DISCID=7c06a40a
DTITLE=Drifters, The - The Drifters Volume 1
DYEAR=1900
DGENRE=Ethnic
TTITLE0=Save the last Dance for Me
TTITLE1=There goes my Baby
TTITLE2=This Magic Moment
TTITLE3=On Broadway
TTITLE4=Sweets for My Sweet
TTITLE5=Saturday Night at the Movies
TTITLE6=Bring it on home to Me
TTITLE7=Cupid
TTITLE8=(Sittin' On) The Dock of the Bay
TTITLE9=Unchained Melody
EXTD=
EXTT0=
EXTT1=
EXTT2=
EXTT3=
EXTT4=
EXTT5=
EXTT6=
EXTT7=
EXTT8=
EXTT9=
PLAYORDER=
